<svg width="54" height="9" xmlns="http://www.w3.org/2000/svg" xmlns:xlink="http://www.w3.org/1999/xlink" overflow="hidden"><defs><clipPath id="clip0"><rect x="235" y="89" width="54" height="9"/></clipPath><clipPath id="clip1"><rect x="235" y="90" width="53" height="7"/></clipPath><clipPath id="clip2"><rect x="235" y="90" width="53" height="7"/></clipPath></defs><g clip-path="url(#clip0)" transform="translate(-235 -89)"><g clip-path="url(#clip1)"><g clip-path="url(#clip2)"><path d="M4.89232 25.8703C4.89232 20.7671 4.89232 15.6639 4.89232 10.5607 23.2217 10.5607 41.551 10.5607 59.8803 10.5607 59.8803 15.6639 59.8803 20.7671 59.8803 25.8703 41.551 25.8703 23.2217 25.8703 4.89232 25.8703ZM47.5706 19.4593C47.5706 19.713 47.5706 19.9586 47.5706 20.2022 50.6237 20.2022 53.6684 20.2022 56.7125 20.2022 56.7125 19.9505 56.7125 19.708 56.7125 19.4593 53.6647 19.4593 50.623 19.4593 47.5706 19.4593ZM33.2209 18.6161C33.2209 19.0072 33.2216 19.3807 33.2192 19.7545 33.2192 19.7791 33.2027 19.8149 33.1824 19.8264 32.9965 19.932 32.8143 20.0467 32.6196 20.1331 32.2738 20.2866 31.9037 20.3004 31.5312 20.2879 31.2292 20.2778 30.9532 20.184 30.711 20.0123 30.1779 19.6337 29.9596 19.0821 29.911 18.4562 29.8833 18.1036 29.9096 17.7504 30.0075 17.4052 30.1168 17.0206 30.3105 16.6875 30.6202 16.4338 31.0072 16.1167 31.4742 16.0691 31.9435 16.1251 32.5039 16.1922 32.896 16.507 33.1004 17.0415 33.1612 17.2004 33.1949 17.2115 33.365 17.1572 33.4419 17.1326 33.5208 17.1147 33.6086 17.0911 33.5337 16.9328 33.4722 16.7793 33.3913 16.6369 33.2401 16.3714 33.0461 16.1386 32.7752 15.9895 32.235 15.6922 31.6577 15.6396 31.0656 15.7833 30.4491 15.9331 30.0169 16.3231 29.7311 16.8782 29.5678 17.1957 29.4855 17.5364 29.4474 17.8941 29.4018 18.3219 29.4336 18.7379 29.5547 19.1485 29.694 19.6219 29.9663 20.0062 30.3628 20.2954 30.6603 20.5127 30.9984 20.6301 31.3692 20.6709 31.7636 20.7141 32.1473 20.6797 32.5309 20.593 32.9047 20.5086 33.2219 20.3112 33.536 20.1058 33.6329 20.0427 33.6838 19.9661 33.6808 19.8335 33.6693 19.3412 33.676 18.8486 33.676 18.3563 33.676 18.3118 33.676 18.2673 33.676 18.2241 33.0097 18.2241 32.3592 18.2241 31.709 18.2241 31.709 18.358 31.709 18.4829 31.709 18.6158 32.2107 18.6161 32.7063 18.6161 33.2209 18.6161ZM23.3397 15.7904C23.3397 17.4065 23.3397 19.0078 23.3397 20.6156 23.9039 20.6156 24.4599 20.6132 25.0156 20.6166 25.3213 20.6186 25.6182 20.5754 25.9023 20.4631 26.3605 20.2815 26.675 19.9532 26.874 19.5059 27.0201 19.1772 27.0805 18.8327 27.1095 18.4761 27.1385 18.1215 27.1176 17.7726 27.0474 17.4264 26.9678 17.033 26.8092 16.6727 26.5333 16.3758 26.1864 16.003 25.7387 15.8184 25.2434 15.7968 24.6128 15.7695 23.9801 15.7904 23.3397 15.7904ZM16.8222 19.0908C16.7186 19.1111 16.6214 19.1499 16.5269 19.1442 16.3667 19.1347 16.3724 19.2056 16.3994 19.3243 16.5357 19.9212 16.8616 20.3534 17.4504 20.5697 17.8695 20.7235 18.2986 20.7299 18.7248 20.6348 19.1209 20.5464 19.4606 20.35 19.6894 19.9961 19.8689 19.7184 19.9239 19.409 19.8861 19.0912 19.851 18.7983 19.7255 18.5473 19.4748 18.358 19.1334 18.1006 18.7339 18.0112 18.3351 17.913 18.0402 17.8404 17.7362 17.7979 17.4652 17.6478 17.1859 17.4929 17.0219 17.2628 17.0354 16.9352 17.0479 16.6305 17.1997 16.4126 17.4706 16.2665 17.8215 16.0772 18.1934 16.0802 18.5628 16.1548 18.8675 16.2162 19.1057 16.3977 19.2204 16.701 19.269 16.8296 19.2926 16.9672 19.3294 17.1083 19.4671 17.0948 19.6023 17.0816 19.7488 17.0675 19.7366 16.9848 19.7255 16.9116 19.715 16.838 19.6567 16.4247 19.4488 16.1032 19.077 15.9189 18.5223 15.6443 17.9417 15.6392 17.3667 15.8542 17.1171 15.9476 16.9089 16.1133 16.7648 16.3484 16.585 16.6417 16.5387 16.9564 16.6049 17.2891 16.6511 17.5223 16.7577 17.7288 16.9433 17.8786 17.2594 18.1333 17.6397 18.2392 18.0307 18.3172 18.3891 18.3884 18.747 18.4596 19.0696 18.6482 19.5811 18.9475 19.5251 19.6479 19.1421 19.9789 18.7855 20.2869 18.3459 20.3433 17.9086 20.2785 17.2766 20.185 16.9254 19.71 16.8222 19.0908ZM8.47114 19.0973C8.33719 19.1162 8.20965 19.13 8.08448 19.155 8.06221 19.1593 8.02982 19.2116 8.03454 19.2359 8.09595 19.5544 8.2029 19.8568 8.41783 20.1051 8.75793 20.4975 9.206 20.6716 9.7148 20.6878 9.92534 20.6945 10.1413 20.678 10.3474 20.6368 10.7469 20.5572 11.0857 20.3693 11.3239 20.0207 11.5175 19.738 11.5749 19.4235 11.5391 19.0969 11.5067 18.8037 11.3816 18.552 11.1319 18.3617 10.7918 18.1023 10.3916 18.0132 9.99316 17.9137 9.69456 17.8391 9.38617 17.7983 9.11186 17.6444 8.83182 17.4872 8.67223 17.2547 8.68843 16.9284 8.70327 16.6248 8.85611 16.4078 9.12941 16.2634 9.47761 16.0792 9.8447 16.0856 10.2104 16.1531 10.4497 16.1973 10.669 16.3211 10.7881 16.5452 10.8788 16.7155 10.9284 16.9079 11.002 17.1063 11.115 17.0958 11.2503 17.0833 11.3998 17.0691 11.3883 16.9851 11.3782 16.9085 11.3674 16.8316 11.31 16.4274 11.1046 16.1089 10.7459 15.9264 10.1909 15.644 9.60413 15.6379 9.02448 15.8525 8.7667 15.948 8.55313 16.1197 8.40737 16.3653 8.23394 16.6575 8.19244 16.9689 8.25824 17.2959 8.30311 17.5196 8.40602 17.7207 8.58214 17.8661 8.86759 18.1023 9.21173 18.2102 9.56871 18.2936 9.91589 18.3749 10.2641 18.4613 10.5974 18.5847 10.7462 18.6401 10.8987 18.768 10.9811 18.9043 11.199 19.266 11.1049 19.6904 10.8171 19.957 10.4537 20.2937 9.98944 20.351 9.53024 20.2704 8.88041 20.1574 8.57978 19.6746 8.47114 19.0973ZM11.8479 20.6156C11.9929 20.6156 12.1195 20.6139 12.2456 20.6162 12.3071 20.6173 12.3354 20.6017 12.3597 20.5339 12.5031 20.1317 12.6573 19.7336 12.8071 19.3338 12.9043 19.0747 12.9039 19.0743 13.1762 19.0743 13.8082 19.0743 14.4401 19.0743 15.068 19.0743 15.2613 19.5706 15.4506 20.0599 15.6446 20.5474 15.6568 20.5781 15.7074 20.6105 15.7415 20.6122 15.8801 20.6196 16.0191 20.6152 16.1629 20.6152 16.1531 20.5788 16.1484 20.5457 16.1359 20.5157 15.9071 19.9573 15.675 19.3999 15.4489 18.8405 15.0694 17.9012 14.6938 16.9602 14.3159 16.0202 14.2232 15.7894 14.2218 15.79 13.9742 15.79 13.9067 15.79 13.8378 15.7813 13.7724 15.7934 13.7343 15.8005 13.6847 15.8332 13.6708 15.867 13.5662 16.121 13.4681 16.3778 13.3702 16.6346 13.1401 17.2362 12.9113 17.8381 12.6819 18.4397 12.4876 18.9495 12.2929 19.459 12.0979 19.9684 12.0162 20.1813 11.9336 20.3936 11.8479 20.6156ZM38.9628 20.6156C39.1042 20.6156 39.2263 20.6119 39.3481 20.6169 39.422 20.62 39.4537 20.598 39.48 20.5221 39.6406 20.0612 39.8086 19.6027 39.979 19.1452 39.9905 19.1138 40.0425 19.0774 40.0755 19.0774 40.779 19.0733 41.4822 19.0743 42.1819 19.0743 42.3749 19.57 42.5645 20.0592 42.7585 20.5467 42.7707 20.5774 42.8206 20.6105 42.8547 20.6122 42.9934 20.6196 43.1324 20.6152 43.2805 20.6152 43.265 20.571 43.2532 20.5322 43.238 20.4948 43.1536 20.2852 43.0686 20.0764 42.9839 19.8669 42.7147 19.2008 42.4454 18.5348 42.1762 17.8691 41.9144 17.2223 41.6509 16.5759 41.3924 15.9277 41.3553 15.8342 41.3185 15.7725 41.2011 15.787 41.0972 15.7998 40.9902 15.7833 40.8856 15.7931 40.8492 15.7965 40.7993 15.8336 40.7854 15.8677 40.6785 16.1298 40.5786 16.395 40.4774 16.6595 40.25 17.253 40.0232 17.8468 39.7962 18.4403 39.6015 18.9498 39.4068 19.4593 39.2118 19.9684 39.1305 20.1817 39.0481 20.3939 38.9628 20.6156ZM54.3351 17.8458C52.0722 17.8458 49.8207 17.8458 47.5685 17.8458 47.5685 18.0975 47.5685 18.3398 47.5685 18.5878 49.8264 18.5878 52.0779 18.5878 54.3351 18.5878 54.3351 18.3381 54.3351 18.0959 54.3351 17.8458ZM47.5729 16.2233C47.5729 16.481 47.5729 16.726 47.5729 16.9696 49.0983 16.9696 50.6133 16.9696 52.1299 16.9696 52.1299 16.7166 52.1299 16.4713 52.1299 16.2233 50.6075 16.2233 49.0956 16.2233 47.5729 16.2233ZM37.8288 20.6102C37.8288 19.1337 37.8288 17.6674 37.8288 16.1878 38.3318 16.1878 38.8224 16.1878 39.3103 16.1878 39.3103 16.0498 39.3103 15.9253 39.3103 15.7975 38.1726 15.7975 37.0416 15.7975 35.911 15.7975 35.911 15.9328 35.911 16.0606 35.911 16.201 36.4019 16.201 36.8837 16.201 37.3736 16.201 37.3736 17.6775 37.3736 19.1408 37.3736 20.6098 37.5238 20.6102 37.6655 20.6102 37.8288 20.6102ZM43.878 15.7948C43.878 17.4076 43.878 19.0085 43.878 20.6061 44.7985 20.6061 45.7098 20.6061 46.6204 20.6061 46.6204 20.4718 46.6204 20.3473 46.6204 20.21 45.8545 20.21 45.0944 20.21 44.3224 20.21 44.3224 18.7315 44.3224 17.2652 44.3224 15.7948 44.1689 15.7948 44.0272 15.7948 43.878 15.7948ZM28.0445 15.7954C28.0445 17.4069 28.0445 19.0082 28.0445 20.6054 28.1983 20.6054 28.3431 20.6054 28.4844 20.6054 28.4844 18.9974 28.4844 17.3991 28.4844 15.7954 28.3367 15.7954 28.1946 15.7954 28.0445 15.7954ZM35.1367 20.6098C35.1367 19.0028 35.1367 17.4015 35.1367 15.7981 34.9852 15.7981 34.8404 15.7981 34.697 15.7981 34.697 17.4072 34.697 19.0085 34.697 20.6098 34.8478 20.6098 34.9895 20.6098 35.1367 20.6098ZM22.4895 19.0682C22.4895 18.9343 22.4895 18.8068 22.4895 18.6782 21.9075 18.6782 21.3332 18.6782 20.761 18.6782 20.761 18.8145 20.761 18.9424 20.761 19.0682 21.342 19.0682 21.9135 19.0682 22.4895 19.0682Z" fill="#FEFEFE" transform="matrix(1.0628 0 0 1 227.082 75.2894)"/><path d="M47.5706 19.4593C50.623 19.4593 53.6647 19.4593 56.7125 19.4593 56.7125 19.7076 56.7125 19.9502 56.7125 20.2022 53.6681 20.2022 50.6234 20.2022 47.5706 20.2022 47.5706 19.9583 47.5706 19.713 47.5706 19.4593Z" fill="#2E75B5" transform="matrix(1.0628 0 0 1 227.082 75.2894)"/><path d="M33.2209 18.6161C32.7063 18.6161 32.2107 18.6161 31.7093 18.6161 31.7093 18.4832 31.7093 18.3583 31.7093 18.2244 32.3595 18.2244 33.01 18.2244 33.6764 18.2244 33.6764 18.2673 33.6764 18.3118 33.6764 18.3567 33.6764 18.8493 33.6693 19.3419 33.6811 19.8338 33.6841 19.9664 33.6332 20.043 33.5364 20.1061 33.2222 20.3112 32.9051 20.5089 32.5312 20.5933 32.1476 20.68 31.764 20.7144 31.3696 20.6712 30.9988 20.6304 30.6607 20.513 30.3631 20.2957 29.9666 20.0062 29.6944 19.6219 29.555 19.1489 29.4342 18.7383 29.4025 18.3222 29.4477 17.8944 29.4855 17.5371 29.5682 17.1963 29.7315 16.8785 30.0169 16.3231 30.4491 15.9331 31.0659 15.7836 31.658 15.6399 32.2353 15.6925 32.7755 15.9898 33.0464 16.1389 33.2408 16.3721 33.3916 16.6373 33.4726 16.7796 33.534 16.9332 33.6089 17.0914 33.5212 17.115 33.4422 17.1329 33.3653 17.1575 33.1952 17.2119 33.1615 17.2011 33.1008 17.0418 32.8963 16.5074 32.5042 16.1926 31.9438 16.1254 31.4742 16.0691 31.0075 16.117 30.6205 16.4341 30.3108 16.6879 30.1171 17.0209 30.0078 17.4055 29.9096 17.7504 29.8836 18.1036 29.9113 18.4565 29.9602 19.0824 30.1782 19.6341 30.7113 20.0126 30.9535 20.1847 31.2295 20.2782 31.5315 20.2883 31.904 20.3008 32.2741 20.2869 32.62 20.1334 32.8147 20.047 32.9968 19.9323 33.1828 19.8267 33.2027 19.8152 33.2192 19.7795 33.2195 19.7549 33.2216 19.3807 33.2209 19.0072 33.2209 18.6161Z" fill="#2B6EAA" transform="matrix(1.0628 0 0 1 227.082 75.2894)"/><path d="M23.3397 15.7904C23.9801 15.7904 24.6128 15.7695 25.2434 15.7971 25.7387 15.8187 26.1867 16.0033 26.5333 16.3761 26.8092 16.673 26.9682 17.0334 27.0474 17.4268 27.1173 17.7726 27.1382 18.1215 27.1095 18.4764 27.0805 18.8331 27.0205 19.1776 26.874 19.5062 26.675 19.9532 26.3605 20.2815 25.9023 20.4634 25.6182 20.5761 25.3213 20.6189 25.0156 20.6169 24.4599 20.6135 23.9039 20.6159 23.3397 20.6159 23.3397 19.0078 23.3397 17.4065 23.3397 15.7904ZM23.7946 16.1946C23.7946 17.5415 23.7946 18.8729 23.7946 20.235 24.3513 20.21 24.9009 20.2097 25.4451 20.153 25.8699 20.1088 26.1952 19.8672 26.3922 19.4758 26.5768 19.1097 26.6311 18.7157 26.6449 18.3125 26.6551 18.0149 26.6382 17.72 26.5694 17.4288 26.4749 17.0293 26.293 16.6852 25.9475 16.447 25.6833 16.2648 25.3736 16.2132 25.0656 16.199 24.6455 16.1801 24.2241 16.1946 23.7946 16.1946Z" fill="#2B6EAA" transform="matrix(1.0628 0 0 1 227.082 75.2894)"/><path d="M16.8222 19.0908C16.9254 19.71 17.277 20.185 17.9086 20.2785 18.3459 20.3433 18.7855 20.2869 19.1421 19.9789 19.5251 19.6482 19.5811 18.9478 19.0696 18.6482 18.747 18.4596 18.3891 18.3884 18.0307 18.3172 17.6397 18.2392 17.2594 18.1333 16.9433 17.8786 16.7577 17.7291 16.6511 17.5223 16.6049 17.2891 16.5387 16.9564 16.585 16.6417 16.7648 16.3484 16.9089 16.1133 17.1171 15.9476 17.3667 15.8542 17.9417 15.6392 18.5223 15.6443 19.077 15.9189 19.4488 16.1032 19.6567 16.4244 19.715 16.838 19.7255 16.9112 19.7366 16.9848 19.7488 17.0675 19.6023 17.0816 19.4671 17.0951 19.3294 17.1083 19.2926 16.9672 19.269 16.8292 19.2204 16.701 19.106 16.3977 18.8675 16.2162 18.5628 16.1548 18.1937 16.0802 17.8215 16.0772 17.4706 16.2665 17.1997 16.4126 17.0479 16.6305 17.0354 16.9352 17.0219 17.2628 17.1859 17.4929 17.4652 17.6478 17.7362 17.7979 18.0402 17.8401 18.3351 17.913 18.7339 18.0112 19.1337 18.1006 19.4748 18.358 19.7258 18.5473 19.8514 18.7983 19.8861 19.0912 19.9239 19.409 19.8692 19.7184 19.6894 19.9961 19.4606 20.35 19.1209 20.5464 18.7248 20.6348 18.2986 20.7299 17.8695 20.7235 17.4504 20.5697 16.8616 20.3534 16.5357 19.9212 16.3994 19.3243 16.3724 19.2052 16.3667 19.1347 16.5269 19.1442 16.6214 19.1496 16.7182 19.1111 16.8222 19.0908Z" fill="#2B6EAA" transform="matrix(1.0628 0 0 1 227.082 75.2894)"/><path d="M8.47114 19.0973C8.57978 19.6746 8.88041 20.1574 9.53024 20.2718 9.98944 20.3524 10.4534 20.295 10.8171 19.9583 11.1049 19.6918 11.199 19.2673 10.9811 18.9056 10.8991 18.7693 10.7466 18.6414 10.5974 18.5861 10.2644 18.4626 9.91589 18.3759 9.56871 18.2949 9.21173 18.2112 8.86759 18.1033 8.58214 17.8674 8.40602 17.722 8.30311 17.5209 8.25824 17.2972 8.19278 16.9699 8.23394 16.6589 8.40737 16.3667 8.55313 16.1207 8.7667 15.9493 9.02448 15.8538 9.60413 15.6389 10.1905 15.6453 10.7459 15.9277 11.1046 16.1099 11.3097 16.4288 11.3674 16.833 11.3782 16.9099 11.3883 16.9865 11.3998 17.0705 11.25 17.0843 11.115 17.0971 11.002 17.1076 10.9284 16.9092 10.8788 16.7169 10.7881 16.5465 10.669 16.3225 10.4497 16.1983 10.2104 16.1544 9.8447 16.087 9.47761 16.0806 9.12941 16.2648 8.85645 16.4092 8.70327 16.6261 8.68843 16.9298 8.67257 17.2561 8.83182 17.4885 9.11186 17.6458 9.38617 17.7996 9.69422 17.8404 9.99316 17.915 10.3916 18.0145 10.7918 18.1036 11.1319 18.3631 11.3816 18.5534 11.5071 18.8051 11.5391 19.0983 11.5749 19.4249 11.5175 19.7393 11.3239 20.0221 11.0853 20.3703 10.7469 20.5582 10.3474 20.6382 10.1409 20.6793 9.925 20.6959 9.7148 20.6891 9.206 20.6733 8.75793 20.4988 8.41783 20.1064 8.20257 19.8581 8.09561 19.5558 8.03454 19.2373 8.02982 19.2133 8.06221 19.1607 8.08448 19.1563 8.20965 19.13 8.33719 19.1158 8.47114 19.0973Z" fill="#2B6EAA" transform="matrix(1.0628 0 0 1 227.082 75.2894)"/><path d="M11.8479 20.6156C11.9336 20.3936 12.0162 20.1813 12.0979 19.9688 12.2929 19.4593 12.4876 18.9498 12.6819 18.44 12.9113 17.8384 13.1404 17.2365 13.3702 16.6349 13.4684 16.3781 13.5662 16.1214 13.6708 15.8673 13.6847 15.8336 13.7346 15.8008 13.7724 15.7938 13.8375 15.7816 13.9067 15.7904 13.9742 15.7904 14.2218 15.7904 14.2232 15.7897 14.3159 16.0205 14.6938 16.9605 15.0694 17.9015 15.4489 18.8408 15.675 19.4002 15.9071 19.9576 16.1359 20.516 16.1484 20.5461 16.1531 20.5791 16.1629 20.6156 16.0195 20.6156 15.8801 20.62 15.7415 20.6125 15.7074 20.6108 15.6568 20.5781 15.6446 20.5477 15.4503 20.0602 15.261 19.571 15.068 19.0747 14.4401 19.0747 13.8082 19.0747 13.1762 19.0747 12.9039 19.0747 12.9043 19.075 12.8071 19.3341 12.6573 19.7339 12.5031 20.1321 12.3597 20.5343 12.3354 20.6021 12.3071 20.6176 12.2456 20.6166 12.1195 20.6139 11.9929 20.6156 11.8479 20.6156ZM13.0473 18.6931C13.6658 18.6931 14.2798 18.6931 14.9074 18.6931 14.7404 18.2666 14.5727 17.8482 14.4128 17.4268 14.2532 17.0064 14.1014 16.5829 13.9529 16.1787 13.6553 17.0044 13.352 17.8472 13.0473 18.6931Z" fill="#2B6EAA" transform="matrix(1.0628 0 0 1 227.082 75.2894)"/><path d="M38.9628 20.6156C39.0481 20.3939 39.1305 20.1817 39.2121 19.9694 39.4071 19.46 39.6018 18.9505 39.7965 18.4414 40.0236 17.8475 40.2503 17.254 40.4777 16.6605 40.5789 16.396 40.6788 16.1312 40.7858 15.8687 40.7996 15.8346 40.8495 15.7975 40.886 15.7941 40.9902 15.784 41.0975 15.8008 41.2014 15.788 41.3192 15.7735 41.3556 15.8353 41.3927 15.9287 41.6515 16.5769 41.915 17.223 42.1765 17.8701 42.4458 18.5362 42.715 19.2019 42.9843 19.8679 43.069 20.0771 43.154 20.2863 43.2383 20.4958 43.2535 20.5332 43.2653 20.572 43.2808 20.6162 43.1331 20.6162 42.9937 20.6206 42.855 20.6132 42.821 20.6115 42.7714 20.5785 42.7589 20.5477 42.5645 20.0605 42.3753 19.5713 42.1823 19.0753 41.4825 19.0753 40.779 19.0743 40.0759 19.0784 40.0428 19.0787 39.9908 19.1151 39.9794 19.1462 39.809 19.6037 39.6406 20.0619 39.4804 20.5231 39.454 20.5987 39.4223 20.621 39.3484 20.6179 39.2263 20.6119 39.1038 20.6156 38.9628 20.6156ZM42.0153 18.6934C41.6981 17.8624 41.3836 17.0394 41.0628 16.199 40.7567 17.0448 40.4595 17.8671 40.1606 18.6934 40.779 18.6934 41.3897 18.6934 42.0153 18.6934Z" fill="#2B6EAA" transform="matrix(1.0628 0 0 1 227.082 75.2894)"/><path d="M54.3351 17.8458C54.3351 18.0962 54.3351 18.3384 54.3351 18.5878 52.0779 18.5878 49.8264 18.5878 47.5685 18.5878 47.5685 18.3398 47.5685 18.0975 47.5685 17.8458 49.8207 17.8458 52.0722 17.8458 54.3351 17.8458Z" fill="#478ED0" transform="matrix(1.0628 0 0 1 227.082 75.2894)"/><path d="M47.5729 16.2233C49.0953 16.2233 50.6075 16.2233 52.1299 16.2233 52.1299 16.4716 52.1299 16.7166 52.1299 16.9696 50.6133 16.9696 49.0983 16.9696 47.5729 16.9696 47.5729 16.7257 47.5729 16.4807 47.5729 16.2233Z" fill="#79ACDC" transform="matrix(1.0628 0 0 1 227.082 75.2894)"/><path d="M37.8288 20.6102C37.6655 20.6102 37.5234 20.6102 37.3736 20.6102 37.3736 19.1415 37.3736 17.6778 37.3736 16.2013 36.8837 16.2013 36.4016 16.2013 35.911 16.2013 35.911 16.061 35.911 15.9331 35.911 15.7978 37.0416 15.7978 38.1726 15.7978 39.3103 15.7978 39.3103 15.9253 39.3103 16.0502 39.3103 16.1882 38.8224 16.1882 38.3322 16.1882 37.8288 16.1882 37.8288 17.6674 37.8288 19.1337 37.8288 20.6102Z" fill="#2B6EAA" transform="matrix(1.0628 0 0 1 227.082 75.2894)"/><path d="M43.878 15.7948C44.0268 15.7948 44.1685 15.7948 44.3224 15.7948 44.3224 17.2655 44.3224 18.7315 44.3224 20.21 45.0944 20.21 45.8545 20.21 46.6204 20.21 46.6204 20.347 46.6204 20.4718 46.6204 20.6061 45.7101 20.6061 44.7985 20.6061 43.878 20.6061 43.878 19.0085 43.878 17.4076 43.878 15.7948Z" fill="#2B6EAA" transform="matrix(1.0628 0 0 1 227.082 75.2894)"/><path d="M28.0445 15.7954C28.1946 15.7954 28.3363 15.7954 28.4844 15.7954 28.4844 17.3991 28.4844 18.9974 28.4844 20.6054 28.3431 20.6054 28.198 20.6054 28.0445 20.6054 28.0445 19.0082 28.0445 17.4069 28.0445 15.7954Z" fill="#2B6EAA" transform="matrix(1.0628 0 0 1 227.082 75.2894)"/><path d="M35.1367 20.6098C34.9895 20.6098 34.8478 20.6098 34.697 20.6098 34.697 19.0085 34.697 17.4076 34.697 15.7981 34.8404 15.7981 34.9852 15.7981 35.1367 15.7981 35.1367 17.4015 35.1367 19.0028 35.1367 20.6098Z" fill="#2B6EAA" transform="matrix(1.0628 0 0 1 227.082 75.2894)"/><path d="M22.4895 19.0682C21.9135 19.0682 21.342 19.0682 20.761 19.0682 20.761 18.9424 20.761 18.8145 20.761 18.6782 21.3332 18.6782 21.9078 18.6782 22.4895 18.6782 22.4895 18.8068 22.4895 18.9346 22.4895 19.0682Z" fill="#2B6EAA" transform="matrix(1.0628 0 0 1 227.082 75.2894)"/><path d="M23.7946 16.1946C24.2241 16.1946 24.6455 16.1801 25.0652 16.1993 25.3733 16.2135 25.683 16.2651 25.9472 16.4473 26.2927 16.6855 26.4745 17.0297 26.569 17.4291 26.6378 17.7203 26.6547 18.0152 26.6446 18.3128 26.6311 18.716 26.5764 19.1101 26.3919 19.4762 26.1948 19.8672 25.8696 20.1088 25.4448 20.1533 24.9009 20.21 24.3509 20.2103 23.7942 20.2353 23.7946 18.8729 23.7946 17.5415 23.7946 16.1946Z" fill="#FEFEFE" transform="matrix(1.0628 0 0 1 227.082 75.2894)"/><path d="M13.0473 18.6931C13.352 17.8472 13.6553 17.0047 13.9529 16.1784 14.1014 16.5826 14.2532 17.006 14.4128 17.4264 14.5727 17.8479 14.7404 18.2666 14.9074 18.6927 14.2798 18.6931 13.6658 18.6931 13.0473 18.6931Z" fill="#FEFEFE" transform="matrix(1.0628 0 0 1 227.082 75.2894)"/><path d="M42.0153 18.6934C41.3894 18.6934 40.7787 18.6934 40.1602 18.6934 40.4592 17.8671 40.7564 17.0448 41.0624 16.199 41.384 17.0398 41.6981 17.8627 42.0153 18.6934Z" fill="#FEFEFE" transform="matrix(1.0628 0 0 1 227.082 75.2894)"/></g></g></g></svg>